<svg width="333" height="88" viewBox="0 0 333 88" fill="none" xmlns="http://www.w3.org/2000/svg">
<path d="M41.3235 7.28717L46.7683 31.3915L67.6627 18.1972L54.4684 39.0916L78.5727 44.5364L54.4684 49.9812L67.6627 70.8756L46.7683 57.6813L41.3235 81.7857L35.8787 57.6813L14.9843 70.8756L28.1786 49.9812L4.07422 44.5364L28.1786 39.0916L14.9843 18.1972L35.8787 31.3915L41.3235 7.28717Z" fill="#FF7A00"/>
<path d="M46.5615 6.12311L52.0063 30.2275L72.9007 17.0332L59.7064 37.9276L83.8108 43.3724L59.7064 48.8172L72.9007 69.7116L52.0063 56.5173L46.5615 80.6216L41.1167 56.5173L20.2223 69.7116L33.4166 48.8172L9.31226 43.3724L33.4166 37.9276L20.2223 17.0332L41.1167 30.2275L46.5615 6.12311Z" fill="#FFE81C"/>
<path d="M143.723 25.1959V62.9544H138.757V34.7992L126.207 62.9544H122.715L110.111 34.7446V62.9544H105.146V25.1959H110.493L124.461 56.4067L138.43 25.1959H143.723ZM177.898 33.0531L159.891 77.032H154.762L160.655 62.627L148.597 33.0531H154.108L163.493 57.2797L172.769 33.0531H177.898ZM194.948 63.3364C192.438 63.3364 190.183 62.8998 188.182 62.0268C186.218 61.1174 184.672 59.8806 183.544 58.3164C182.416 56.7159 181.834 54.8789 181.798 52.8054H187.091C187.272 54.5879 188 56.0975 189.273 57.3343C190.583 58.5347 192.474 59.1349 194.948 59.1349C197.312 59.1349 199.167 58.5529 200.513 57.3888C201.896 56.1884 202.587 54.6606 202.587 52.8054C202.587 51.3504 202.187 50.1682 201.386 49.2588C200.586 48.3493 199.586 47.6582 198.385 47.1853C197.185 46.7124 195.566 46.2032 193.529 45.6575C191.019 45.0027 189 44.348 187.472 43.6932C185.981 43.0384 184.69 42.0199 183.598 40.6376C182.544 39.2189 182.016 37.3274 182.016 34.9629C182.016 32.8895 182.544 31.0525 183.598 29.4519C184.653 27.8513 186.127 26.6146 188.018 25.7415C189.946 24.8685 192.147 24.432 194.62 24.432C198.185 24.432 201.095 25.3232 203.351 27.1056C205.642 28.8881 206.934 31.2525 207.225 34.199H201.768C201.586 32.7439 200.823 31.4708 199.477 30.3795C198.131 29.2518 196.348 28.688 194.129 28.688C192.056 28.688 190.364 29.2336 189.055 30.3249C187.745 31.3798 187.091 32.8713 187.091 34.7992C187.091 36.1815 187.472 37.3092 188.236 38.1822C189.037 39.0552 190.001 39.7282 191.128 40.2011C192.292 40.6376 193.911 41.1469 195.985 41.7289C198.494 42.42 200.513 43.1112 202.041 43.8023C203.569 44.4571 204.879 45.4938 205.97 46.9125C207.061 48.2948 207.607 50.1863 207.607 52.5872C207.607 54.4424 207.116 56.1884 206.133 57.8254C205.151 59.4623 203.696 60.79 201.768 61.8086C199.84 62.8271 197.567 63.3364 194.948 63.3364ZM219.879 38.5641C220.861 36.8545 222.316 35.4358 224.244 34.3081C226.208 33.1441 228.482 32.5621 231.065 32.5621C233.72 32.5621 236.121 33.1987 238.267 34.4718C240.45 35.745 242.159 37.5456 243.396 39.8737C244.633 42.1654 245.251 44.839 245.251 47.8946C245.251 50.9139 244.633 53.6057 243.396 55.9702C242.159 58.3346 240.45 60.1716 238.267 61.4812C236.121 62.7907 233.72 63.4455 231.065 63.4455C228.518 63.4455 226.263 62.8817 224.299 61.754C222.371 60.59 220.898 59.1531 219.879 57.4434V77.1411H214.914V33.0531H219.879V38.5641ZM240.177 47.8946C240.177 45.6393 239.722 43.675 238.813 42.0017C237.903 40.3284 236.667 39.0552 235.102 38.1822C233.575 37.3092 231.883 36.8727 230.028 36.8727C228.209 36.8727 226.518 37.3274 224.953 38.2368C223.426 39.1098 222.189 40.4011 221.243 42.1108C220.334 43.7841 219.879 45.7303 219.879 47.9492C219.879 50.2045 220.334 52.187 221.243 53.8967C222.189 55.57 223.426 56.8614 224.953 57.7708C226.518 58.6438 228.209 59.0803 230.028 59.0803C231.883 59.0803 233.575 58.6438 235.102 57.7708C236.667 56.8614 237.903 55.57 238.813 53.8967C239.722 52.187 240.177 50.1863 240.177 47.8946ZM249.932 47.8946C249.932 44.839 250.55 42.1654 251.787 39.8737C253.024 37.5456 254.715 35.745 256.862 34.4718C259.044 33.1987 261.463 32.5621 264.119 32.5621C266.738 32.5621 269.011 33.1259 270.939 34.2536C272.867 35.3812 274.304 36.7999 275.25 38.5096V33.0531H280.27V62.9544H275.25V57.3888C274.268 59.1349 272.794 60.59 270.83 61.754C268.902 62.8817 266.647 63.4455 264.064 63.4455C261.409 63.4455 259.008 62.7907 256.862 61.4812C254.715 60.1716 253.024 58.3346 251.787 55.9702C250.55 53.6057 249.932 50.9139 249.932 47.8946ZM275.25 47.9492C275.25 45.6939 274.795 43.7296 273.886 42.0563C272.976 40.383 271.74 39.1098 270.175 38.2368C268.648 37.3274 266.956 36.8727 265.101 36.8727C263.246 36.8727 261.554 37.3092 260.026 38.1822C258.499 39.0552 257.28 40.3284 256.371 42.0017C255.461 43.675 255.007 45.6393 255.007 47.8946C255.007 50.1863 255.461 52.187 256.371 53.8967C257.28 55.57 258.499 56.8614 260.026 57.7708C261.554 58.6438 263.246 59.0803 265.101 59.0803C266.956 59.0803 268.648 58.6438 270.175 57.7708C271.74 56.8614 272.976 55.57 273.886 53.8967C274.795 52.187 275.25 50.2045 275.25 47.9492ZM293.626 37.9094C294.499 36.1997 295.736 34.872 297.337 33.9262C298.973 32.9804 300.956 32.5075 303.284 32.5075V37.6366H301.974C296.409 37.6366 293.626 40.6558 293.626 46.6942V62.9544H288.661V33.0531H293.626V37.9094ZM325.713 62.9544L313.981 49.7498V62.9544H309.016V22.5768H313.981V46.3123L325.494 33.0531H332.424L318.346 47.9492L332.479 62.9544H325.713Z" fill="white"/>
</svg>
